<svg id="Layer_1" data-name="Layer 1" xmlns="http://www.w3.org/2000/svg" viewBox="0 0 84.6 68.2"><defs><style>.cls-1{fill:#b0b0b0;}</style></defs><title>gallery</title><circle class="cls-1" cx="49.6" cy="22.6" r="9.9"/><path class="cls-1" d="M79.9,54.6h0v.5L54.6,69.9a5.88,5.88,0,0,1-6.9-.6L34.9,58A10.52,10.52,0,0,0,22,57.5L6.7,68.7V35.1c0-2.2,1.5-4.6,3.9-4.6H75.3A5,5,0,0,1,80,35.1l-.1,19.5ZM13.8,24.9H10.6C5.3,24.9,1,29.5,1,35.1V83.3A9.48,9.48,0,0,0,10.2,93h65c5.6,0,10.4-4.4,10.4-9.7V75.8c-.27-13.3,0-27.3,0-40.7a11.7,11.7,0,0,0-3.2-7.2,11.91,11.91,0,0,0-7.2-3.1" transform="translate(-1 -24.8)"/></svg>