<svg id="Layer_1" data-name="Layer 1" xmlns="http://www.w3.org/2000/svg" viewBox="0 0 322.1 423.05"><defs><style>.cls-1{fill:#7fbbd2;}</style></defs><title>صورت-حساب-من</title><path class="cls-1" d="M406.5,55.3a17.78,17.78,0,0,0-19.3,2.9L359.4,82.8a1.87,1.87,0,0,1-2.6,0L319,49a18,18,0,0,0-24,0L257.3,82.7a2,2,0,0,1-2.7,0L216.9,49a18,18,0,0,0-24,0L155.1,82.8a2,2,0,0,1-2.7,0L124.6,58.2a17.77,17.77,0,0,0-25.2,1.5,18.23,18.23,0,0,0-4.5,12V440.2a17.88,17.88,0,0,0,17.8,18,18.23,18.23,0,0,0,12-4.5l27.8-24.6a1.87,1.87,0,0,1,2.6,0l37.8,33.8a18,18,0,0,0,24,0l37.7-33.7a2,2,0,0,1,2.7,0L295,462.9a18,18,0,0,0,24,0l37.8-33.8a2,2,0,0,1,2.7,0l27.8,24.6a17.77,17.77,0,0,0,25.2-1.5,18.23,18.23,0,0,0,4.5-12V71.8A17.76,17.76,0,0,0,406.5,55.3ZM161.2,165h99.6c4.4,0,8,4.8,8,10.7s-3.6,10.7-8,10.7H161.2c-4.4,0-8-4.8-8-10.7S156.8,165,161.2,165ZM350.8,347H161.2c-4.4,0-8-4.8-8-10.7s3.6-10.7,8-10.7H350.8c4.4,0,8,4.8,8,10.7S355.2,347,350.8,347Zm0-80.3H161.2c-4.4,0-8-4.8-8-10.7s3.6-10.7,8-10.7H350.8c4.4,0,8,4.8,8,10.7S355.2,266.7,350.8,266.7Z" transform="translate(-94.9 -44.43)"/></svg>