<svg id="Layer_1" data-name="Layer 1" xmlns="http://www.w3.org/2000/svg" viewBox="0 0 65.9 68.4"><defs><style>.cls-1{fill:#7fbbd2;}</style></defs><title>سفارشهای-من</title><path class="cls-1" d="M83,70.1,80,28.6h0v-.4c0-.1,0-.1-.1-.2s-.1-.1-.1-.2h0l-5-11a2.06,2.06,0,0,0-1.7-1H27a1.94,1.94,0,0,0-1.7,1l-5,11h0c0,.1-.1.1-.1.2s0,.1-.1.2v.4h0l-3,41.5v.1a14,14,0,0,0,14,14h38A13.91,13.91,0,0,0,83,70.1ZM68.2,47.2v1.6a18.2,18.2,0,0,1-36.4,0V47.2A5.07,5.07,0,0,1,29,42.7a5,5,0,0,1,10,0,5.11,5.11,0,0,1-3.2,4.7v1.4a14.2,14.2,0,0,0,28.4,0V47.4A5,5,0,1,1,71,42.7,5,5,0,0,1,68.2,47.2ZM25.4,26.8l2.8-7H71.8l2.8,7Z" transform="translate(-17.1 -15.8)"/></svg>