<svg id="Layer_1" data-name="Layer 1" xmlns="http://www.w3.org/2000/svg" viewBox="0 0 95.1 62.8"><defs><style>.cls-1{fill:#6b6b6b;}</style></defs><title>name</title><g id="Layer_1-2" data-name="Layer 1"><path class="cls-1" d="M85.8,18.7H14.2A11.71,11.71,0,0,0,2.5,30.4V69.8A11.71,11.71,0,0,0,14.2,81.5H85.9A11.71,11.71,0,0,0,97.6,69.8V30.3A11.78,11.78,0,0,0,85.8,18.7Zm8,51a7.92,7.92,0,0,1-7.9,7.9H14.2a7.92,7.92,0,0,1-7.9-7.9V30.3a7.92,7.92,0,0,1,7.9-7.9H85.9a7.92,7.92,0,0,1,7.9,7.9Z" transform="translate(-2.5 -18.7)"/><path class="cls-1" d="M81.9,33.4H55.5a1.9,1.9,0,0,0-1.9,1.9,1.84,1.84,0,0,0,1.9,1.9H81.9a1.9,1.9,0,0,0,1.9-1.9A1.84,1.84,0,0,0,81.9,33.4Z" transform="translate(-2.5 -18.7)"/><path class="cls-1" d="M81.9,48.1H55.5A1.9,1.9,0,0,0,53.6,50a1.84,1.84,0,0,0,1.9,1.9H81.9A1.9,1.9,0,0,0,83.8,50,1.84,1.84,0,0,0,81.9,48.1Z" transform="translate(-2.5 -18.7)"/><path class="cls-1" d="M81.9,62.9H55.5a1.9,1.9,0,1,0,0,3.8H81.9a1.9,1.9,0,0,0,1.9-1.9A1.84,1.84,0,0,0,81.9,62.9Z" transform="translate(-2.5 -18.7)"/><path class="cls-1" d="M35.9,48a9.38,9.38,0,1,0-15.5-7.1A9.24,9.24,0,0,0,23.7,48a15.62,15.62,0,0,0-8.1,14c0,1.5.7,4.2,5,6a25.24,25.24,0,0,0,9.2,1.6c7.1,0,14.2-2.3,14.2-7.5A15.79,15.79,0,0,0,35.9,48ZM24.2,40.9a5.6,5.6,0,1,1,5.6,5.6A5.59,5.59,0,0,1,24.2,40.9Zm5.6,24.9c-5.7,0-10.4-1.7-10.4-3.8,0-6.5,4.7-11.8,10.4-11.8S40.2,55.5,40.2,62C40.3,64.1,35.5,65.8,29.8,65.8Z" transform="translate(-2.5 -18.7)"/></g></svg>