<svg id="Layer_1" data-name="Layer 1" xmlns="http://www.w3.org/2000/svg" viewBox="0 0 84.8 94.96"><defs><style>.cls-1{fill:#7fbbd2;}</style></defs><title>ثبت-سفارش-جدید</title><g id="Layer_1-2" data-name="Layer 1"><path class="cls-1" d="M64.2,2.6a26.49,26.49,0,0,0-8.8,2.2,13.52,13.52,0,0,1-10.8,0,27.12,27.12,0,0,0-8.8-2.2C19.8,1.5,7.6,15.1,7.6,31.9c0,9.2,5.1,15.4,9.4,26.6,2.6,6.8,3.2,10.7,6.3,23.6,1.7,7.1,5.3,15.4,12.6,15.4s6.8-19.5,8.5-28a16,16,0,0,1,3.3-7.3,2.94,2.94,0,0,1,4.5,0,15,15,0,0,1,3.4,7.3c1.7,8.5,1.1,28,8.5,28S75,89.2,76.7,82.1c3.1-12.8,3.7-16.8,6.3-23.6,4.2-11.2,9.4-17.4,9.4-26.6C92.4,15.1,80.2,1.5,64.2,2.6ZM77.7,36.5a1.22,1.22,0,0,1-1.2,1.2H69.3v7.2a1.22,1.22,0,0,1-1.2,1.2H60.2A1.22,1.22,0,0,1,59,44.9V37.7H51.8a1.22,1.22,0,0,1-1.2-1.2V28.6a1.16,1.16,0,0,1,1.2-1.2H59V20.2A1.16,1.16,0,0,1,60.2,19h7.9a1.22,1.22,0,0,1,1.2,1.2v7.2h7.2a1.22,1.22,0,0,1,1.2,1.2Z" transform="translate(-7.6 -2.54)"/></g></svg>