<svg id="Layer_1" data-name="Layer 1" xmlns="http://www.w3.org/2000/svg" viewBox="0 0 19.08 18.84"><defs><style>.cls-1{fill:#6b6b6b;}</style></defs><title>phone</title><path class="cls-1" d="M14.1,15.6l.7-.7.8-.8a2,2,0,0,1,2.9,0l2.4,2.4a1.89,1.89,0,0,1,0,2.9,5.55,5.55,0,0,1-.8.6c-.1.1-.2.1-.3.2-.3.2-.5.3-.8.5s-.3.2-.4.2a4.55,4.55,0,0,1-3.6.3,1.69,1.69,0,0,1-.5-.2c-.4-.2-.9-.4-1.4-.6a21.34,21.34,0,0,1-4.2-2.7,19.2,19.2,0,0,1-1.5-1.4A6.89,6.89,0,0,1,6.3,15a19.69,19.69,0,0,1-2.8-4.5,5.34,5.34,0,0,1-.6-1.4,3.93,3.93,0,0,1-.2-.6,4.2,4.2,0,0,1,.5-3.6c0-.1.1-.2.2-.3s.3-.5.5-.7a.22.22,0,0,1,.2-.2c.2-.2.3-.4.5-.5a2.05,2.05,0,0,1,2.9,0A24.73,24.73,0,0,0,9.8,5.5a1.89,1.89,0,0,1,0,2.9,5.06,5.06,0,0,1-.8.9,1.7,1.7,0,0,0-.6.6l-.2.2c.1.1.1.4.3.6a11.94,11.94,0,0,0,.8,1.6,7.55,7.55,0,0,0,1.1,1.4,6.23,6.23,0,0,0,1.2.9,5.56,5.56,0,0,0,1.7.9,4.88,4.88,0,0,1,.7.3C13.9,15.9,13.9,15.8,14.1,15.6Zm-6-5.5Zm12,7.2-2.4-2.4a.94.94,0,0,0-1.5,0l-.8.8-.7.7-.3.3a1.16,1.16,0,0,1-1,.2,5.9,5.9,0,0,1-.8-.4,16.18,16.18,0,0,1-1.8-1,6.89,6.89,0,0,1-1.3-1.1,9.83,9.83,0,0,1-1.2-1.5c-.3-.5-.6-1.1-.9-1.7a1.6,1.6,0,0,1-.3-.8,1.23,1.23,0,0,1,.2-1l.3-.3.6-.6a4.55,4.55,0,0,0,.9-.7.94.94,0,0,0,0-1.5C8.5,5.7,7,4.2,6.7,3.8a.94.94,0,0,0-1.5,0c-.1.1-.2.3-.4.5,0,.1-.1.1-.1.2a1.79,1.79,0,0,0-.5.7c-.1.1-.2.2-.2.3a3.9,3.9,0,0,0-.4,2.8,1.69,1.69,0,0,0,.2.5c.2.4.3.8.6,1.4A19.72,19.72,0,0,0,7,14.5a12,12,0,0,0,1.1,1.2A8.64,8.64,0,0,0,9.5,17a19.52,19.52,0,0,0,4,2.6c.5.2.9.4,1.3.6.2.1.4.1.5.2a3.86,3.86,0,0,0,2.8-.2c.1,0,.2-.1.3-.2a3.51,3.51,0,0,0,.8-.5c.1-.1.2-.1.3-.2a6.82,6.82,0,0,0,.7-.5A1,1,0,0,0,20.1,17.3Z" transform="translate(-2.5 -2.6)"/></svg>