<?xml version="1.0"?><svg xmlns="http://www.w3.org/2000/svg" height="512px" version="1.1" viewBox="0 0 512.00002 512.00002" width="512px"><g id="surface1"><path d="M 437.019531 74.980469 C 388.667969 26.628906 324.378906 0 256 0 C 187.621094 0 123.332031 26.628906 74.980469 74.980469 C 26.628906 123.332031 0 187.621094 0 256 C 0 324.378906 26.628906 388.667969 74.980469 437.019531 C 123.332031 485.371094 187.621094 512 256 512 C 298.707031 512 341.09375 501.191406 378.585938 480.742188 C 383.433594 478.097656 385.21875 472.023438 382.574219 467.175781 C 379.929688 462.324219 373.855469 460.539062 369.007812 463.183594 C 334.445312 482.035156 295.367188 492 256 492 C 125.871094 492 20 386.128906 20 256 C 20 125.867188 125.871094 20 256 20 C 386.132812 20 492 125.867188 492 256 C 492 319.039062 467.453125 378.304688 422.878906 422.878906 C 418.972656 426.78125 418.972656 433.113281 422.878906 437.019531 C 426.78125 440.925781 433.113281 440.925781 437.019531 437.019531 C 460.910156 413.128906 479.582031 385.183594 492.511719 353.96875 C 505.445312 322.75 512 289.789062 512 256 C 512 187.621094 485.371094 123.332031 437.019531 74.980469 Z M 437.019531 74.980469 " style=" fill-rule:nonzero;fill-opacity:1;" stroke="#7fbbd2" fill="#7fbbd2"/><path d="M 111.75 97.609375 C 107.84375 93.703125 101.511719 93.703125 97.605469 97.609375 C 76.699219 118.515625 60.363281 142.964844 49.050781 170.277344 C 37.738281 197.59375 32 226.433594 32 256 C 32 315.832031 55.300781 372.082031 97.609375 414.390625 C 139.914062 456.699219 196.167969 480 256 480 C 315.832031 480 372.085938 456.699219 414.394531 414.390625 C 456.703125 372.085938 480 315.832031 480 256 C 480 196.167969 456.699219 139.914062 414.394531 97.605469 C 372.085938 55.296875 315.832031 32 256 32 C 221.414062 32 186.777344 40.175781 155.839844 55.640625 C 150.898438 58.109375 148.898438 64.117188 151.367188 69.054688 C 153.835938 73.996094 159.84375 75.996094 164.78125 73.527344 C 192.957031 59.445312 224.5 52 256 52 C 368.484375 52 460 143.515625 460 256 C 460 368.484375 368.484375 460 256 460 C 143.515625 460 52 368.484375 52 256 C 52 201.507812 73.21875 150.28125 111.75 111.75 C 115.65625 107.84375 115.65625 101.511719 111.75 97.609375 Z M 111.75 97.609375 " style=" fill-rule:nonzero;fill-opacity:1;" stroke="#7fbbd2" fill="#7fbbd2"/><path d="M 126.378906 95.730469 C 128.507812 95.730469 130.648438 95.050781 132.464844 93.65625 C 136.855469 90.371094 137.78125 84.15625 134.527344 79.730469 C 131.253906 75.277344 124.996094 74.324219 120.546875 77.597656 L 120.242188 77.828125 C 115.878906 81.214844 115.085938 87.496094 118.472656 91.859375 C 120.445312 94.398438 123.394531 95.730469 126.378906 95.730469 Z M 126.378906 95.730469 " style=" fill-rule:nonzero;fill-opacity:1;" stroke="#7fbbd2" fill="#7fbbd2"/><path d="M 402.230469 441.234375 L 402.109375 441.335938 C 397.796875 444.769531 397.113281 451.011719 400.539062 455.332031 C 402.503906 457.816406 405.425781 459.105469 408.378906 459.105469 C 410.5625 459.105469 412.761719 458.402344 414.601562 456.953125 L 414.726562 456.855469 C 419.039062 453.421875 419.71875 447.175781 416.296875 442.855469 C 412.875 438.535156 406.5625 437.828125 402.230469 441.234375 Z M 402.230469 441.234375 " style=" fill-rule:nonzero;fill-opacity:1;" stroke="#7fbbd2" fill="#7fbbd2"/><path d="M 324 346 C 336.128906 346 346 336.128906 346 324 L 346 188 C 346 175.867188 336.132812 166 324 166 L 188 166 C 175.871094 166 166 175.867188 166 188 L 166 324 C 166 336.128906 175.871094 346 188 346 Z M 186 324 L 186 188 C 186 186.914062 186.917969 186 188 186 L 324 186 C 325.085938 186 326 186.914062 326 188 L 326 324 C 326 325.082031 325.085938 326 324 326 L 188 326 C 186.917969 326 186 325.082031 186 324 Z M 186 324 " style=" fill-rule:nonzero;fill-opacity:1;" stroke="#7fbbd2" fill="#7fbbd2"/></g></svg>
